<?xml version="1.0" encoding="UTF-8" standalone="no"?><!DOCTYPE svg PUBLIC "-//W3C//DTD SVG 1.1//EN" "http://www.w3.org/Graphics/SVG/1.1/DTD/svg11.dtd"><svg width="100%" height="100%" viewBox="0 0 371 330" version="1.1" xmlns="http://www.w3.org/2000/svg" xmlns:xlink="http://www.w3.org/1999/xlink" xml:space="preserve" xmlnsSerif="http://www.serif.com/" style="fill-rule:evenodd;clip-rule:evenodd;stroke-linejoin:round;stroke-miterlimit:1.41421;"><rect id="Artboard1" x="0" y="0" width="370.661" height="329.573" style="fill:none;"/><g><g><path d="M267.687,174.709c-29.378,2.748 -58.699,6.456 -87.854,12.568c-27.877,5.845 -55.525,13.522 -82.339,27.024c-5.063,2.545 -9.998,5.636 -15.03,8.288c-2.753,1.45 -3.637,4.14 -3.993,7.906c-0.637,6.684 -0.312,7.683 3.733,10.278c11.696,7.498 24.016,11.677 36.361,15.614c27.712,8.841 55.703,15.086 83.72,21.186c27.603,6.004 55.264,11.302 82.911,16.816c3.696,0.738 7.41,1.323 11.105,2.093c3.174,0.661 4.427,-0.63 5.031,-5.483c0.623,-4.999 0.153,-6.01 -3.103,-6.684c-32.075,-6.647 -64.149,-13.249 -96.123,-21.008c-32.449,-7.88 -64.893,-15.875 -96.732,-28.634c-2.124,-0.858 -4.242,-1.755 -6.347,-2.741c-0.795,-0.375 -1.947,-0.203 -1.813,-2.449c0.115,-1.946 0.032,-3.555 1.647,-4.553c8.79,-5.432 17.72,-10.259 26.808,-14.362c22.484,-10.138 45.457,-16.467 68.735,-20.429c24.392,-4.159 48.853,-5.921 73.378,-6.137c0.674,-0.007 1.425,0.216 2.016,-0.147c1.546,-0.954 3.587,-1.933 3.27,-5.031c-0.28,-2.684 -1.991,-3.988 -3.855,-4.108c-0.509,-0.032 -1.018,-0.007 -1.526,-0.007" style="fill:#c00a27;"/><path d="M175.737,41.738c3.301,11.328 2.245,21.981 -1.285,32.386c-2.385,7.028 -5.418,13.446 -8.204,20.086c-1.966,4.694 -3.855,9.445 -5.196,14.66c-3.009,11.665 -1.769,22.159 3.943,31.165c2.646,4.179 5.565,7.957 8.408,11.843c2.404,3.288 4.77,6.621 6.71,10.583c2.455,4.987 3.829,10.609 4.14,17.504c6.005,-9.083 10.736,-18.528 12.168,-30.924c0.776,-6.767 -0.338,-12.822 -3.702,-17.732c-2.328,-3.403 -4.554,-6.977 -6.805,-10.488c-3.295,-5.126 -4.262,-10.431 -1.966,-17.471c3.524,-10.787 6.055,-22.204 6.742,-34.39c0.871,-15.684 -4.668,-26.007 -14.953,-27.222" style="fill:#c00a27;"/><path d="M156.787,213.405c-8.16,0.051 -16.25,0.954 -24.086,4.764c-1.622,0.788 -3.187,1.73 -4.637,3.11c-3.708,3.549 -3.74,7.378 -0.082,10.907c2.022,1.953 4.254,3.187 6.563,4.026c15.01,5.483 30.039,5.47 45.037,-0.069c1.87,-0.687 3.695,-1.851 5.431,-3.149c1.75,-1.297 3.702,-2.868 3.657,-6.341c-0.038,-3.244 -1.895,-4.713 -3.555,-6.055c-3.714,-3.002 -7.785,-4.299 -11.868,-5.368c-5.45,-1.425 -10.946,-1.889 -16.46,-1.825" style="fill:#c00a27;"/><path d="M201.606,26.421c3.46,6.692 6.03,12.975 7.225,20.455c0.941,5.909 0.146,10.984 -2.359,15.582c-1.629,2.984 -3.384,5.845 -4.777,9.064c-3.078,7.072 -2.995,12.866 0.305,19.704c2.004,4.159 4.294,7.994 6.469,11.976c2.601,4.77 5.317,9.432 6.404,15.653c0.172,1.004 0.363,1.615 1.209,0.992c1.997,-1.463 3.237,-5.852 2.022,-8.561c-6.436,-14.298 -5.431,-29.314 -2.054,-44.617c1.393,-6.29 2.474,-12.689 2.029,-19.399c-0.693,-10.399 -5.018,-17.617 -11.722,-19.729c-1.399,-0.439 -2.817,-0.674 -4.751,-1.12" style="fill:#c00a27;"/><path d="M224.83,227.265c-6.329,0.242 -12.212,1.177 -17.72,4.91c-2.054,1.393 -4.783,2.703 -4.592,6.818c0.204,4.389 3.129,4.993 5.393,5.75c8.835,2.964 17.504,1.558 25.912,-3.295c2.144,-1.234 4.993,-2.703 4.802,-6.977c-0.203,-4.586 -3.333,-4.897 -5.61,-5.896c-2.779,-1.227 -5.686,-1.189 -8.185,-1.31" style="fill:#c00a27;"/><path d="M239.78,210.777c5.959,-0.121 11.824,-1.176 17.332,-4.91c2.035,-1.386 4.732,-2.696 4.49,-6.894c-0.242,-4.179 -3.028,-4.853 -5.196,-5.578c-8.924,-3.002 -17.669,-1.686 -26.147,3.313c-2.124,1.247 -4.967,2.621 -4.726,7.035c0.248,4.42 3.244,4.776 5.432,5.737c2.855,1.253 5.845,1.31 8.815,1.297" style="fill:#c00a27;"/><path d="M256.705,265.156c5.877,-0.076 11.652,-1.189 17.09,-4.821c2.099,-1.406 4.942,-2.71 4.592,-7.143c-0.324,-4.07 -3.11,-4.719 -5.304,-5.431c-9.013,-2.926 -17.834,-1.654 -26.363,3.574c-2.036,1.24 -4.726,2.665 -4.383,6.977c0.319,3.956 2.99,4.446 5.063,5.387c3.034,1.381 6.17,1.482 9.305,1.457" style="fill:#c00a27;"/></g></g></svg>