<?xml version="1.0" encoding="UTF-8" standalone="no"?><!DOCTYPE svg PUBLIC "-//W3C//DTD SVG 1.1//EN" "http://www.w3.org/Graphics/SVG/1.1/DTD/svg11.dtd"><svg width="100%" height="100%" viewBox="0 0 653 257" version="1.1" xmlns="http://www.w3.org/2000/svg" xmlns:xlink="http://www.w3.org/1999/xlink" xml:space="preserve" xmlns:serif="http://www.serif.com/" style="fill-rule:evenodd;clip-rule:evenodd;stroke-linejoin:round;stroke-miterlimit:1.41421;"><rect id="Artboard1" x="0" y="0" width="652.829" height="256.424" style="fill:none;"/><g id="layer103"><path d="M106.5,228.6c-15.3,-6.9 -26,-42.9 -27.2,-91.1c-1.3,-50.8 6.9,-90.3 22,-106.2c5.3,-5.6 13.4,-5.5 19.6,0.4c3.1,3 9.61,16.281 10.1,17.4c0.49,1.119 3.309,5.446 3.309,5.446l1.791,-3.446c0.9,-2.2 3.8,-6.1 6.3,-8.6c3.8,-3.7 5.2,-4.5 8.3,-4.5c8.5,0 15,8 20.9,25.6c6.6,19.6 7.8,29.7 7.8,64.9c0,25.6 -0.3,32.6 -1.8,40.5c-4.7,25.1 -10.7,40.5 -18.7,47.6c-3,2.7 -7.8,3.8 -11,2.5c-3.6,-1.4 -8.5,-6.6 -11.2,-12.1c-2.9,-5.8 -3,-5.7 -7.9,5c-4,8.7 -8.9,14.7 -13.5,16.6c-4,1.7 -5,1.7 -8.8,0Zm22.5,-29.1c2.3,-2.5 2.4,-2.8 1.2,-8.3c-7.3,-33.1 -9.2,-53.9 -7.3,-79.8c0.7,-9.3 1.6,-18.9 2.1,-21.4c2.5,-13.3 3.4,-17.1 5.2,-23.4l2.1,-6.9l-3.2,-2.9c-4.1,-3.6 -8.8,-3.8 -12.9,-0.3c-5.9,5 -14.473,28.307 -15.4,40.5c-0.927,12.193 -3.809,47.042 0.1,63c3.909,15.958 9.3,34.4 15.2,39.4c4.2,3.5 9.7,3.5 12.9,0.1Zm35.2,-21.5c3,-2.3 6.3,-9.7 9.1,-20c1.6,-5.9 2.1,-11.7 2.4,-27c0.4,-18.2 0.3,-20.2 -2.1,-29.7c-4.1,-16.8 -7.6,-23.3 -12.8,-23.3c-5.4,0 -11.729,16.697 -12.3,19.5c-0.571,2.803 -1.8,8.2 -2.1,8.6c-0.9,1.6 -0.5,42.7 0.5,46.6c0.5,2.1 1.5,6.3 2.1,9.3c1.6,7.1 4.5,12.9 7.8,15.7c3.3,2.8 4.3,2.8 7.4,0.3Z" style="fill:#6970c4;fill-rule:nonzero;"/></g><g id="layer107"><path d="M73.5,213.6c-1.1,-0.7 -4.6,-3.1 -7.9,-5.1c-7.8,-5.1 -21.8,-18.5 -27.1,-25.9c-6.7,-9.6 -11.3,-19.1 -14.6,-30.6c-2.7,-9.5 -3.7,-31.1 -1.9,-40.2c5.6,-28.8 24.6,-54.4 51.2,-69.2c2.6,-1.4 5.2,-2.6 5.7,-2.6c1.7,0 1.3,1.9 -1,4.3c-4.4,4.6 -11,14.7 -15.3,23.3c-8.5,17.2 -12.3,32.4 -13.3,52.9c-1.5,32.2 7.1,62.8 23.9,85.2c3.2,4.3 5.8,8.1 5.8,8.6c0,1.1 -3.3,0.7 -5.5,-0.7Z" style="fill:#6970c4;fill-rule:nonzero;"/><path d="M192.6,150.5c-5.1,-10.7 -4.6,-39.7 0.7,-47.9c2.2,-3.2 5.2,-3.3 7.2,-0.2c5.7,8.6 5.8,40.5 0.2,49c-2.6,3.9 -6.1,3.5 -8.1,-0.9Z" style="fill:#6970c4;fill-rule:nonzero;"/></g><g id="layer110"><path d="M367.3,183.6c-10.1,-3.3 -17.1,-9.8 -18.8,-17.4l-0.7,-3.2l10.2,0c9.9,0 10.3,0.1 13.7,3c2.7,2.4 4.3,3 8.2,3c8.7,0 15.1,-6.7 15.1,-15.9c0,-2.3 0,-2.3 -3.5,0.8c-4.4,3.8 -10.4,5.5 -17.6,4.8c-10.2,-0.9 -19.1,-7.3 -23.8,-17c-3.6,-7.5 -4.6,-14.5 -3.2,-22.2c3.1,-16.7 14.7,-26.8 30.8,-26.8c6.4,0 7.8,0.3 12.2,3.1c4.9,3 5,3 5.3,0.9c0.3,-2.1 0.8,-2.2 9.3,-2.2l9,0l0,33c0,24.3 -0.4,34.2 -1.3,37.5c-1.8,6.1 -10.9,14.8 -18.1,17.3c-7,2.4 -21.3,3.1 -26.8,1.3Zm20.4,-44.6c4.3,-2.6 6.7,-7.4 6.6,-13.5c-0.1,-9.5 -5.6,-15.5 -14.2,-15.5c-13.8,0 -20.1,16.7 -10.2,27.1c3.5,3.6 4.2,3.9 9.2,3.9c3.6,0 6.5,-0.7 8.6,-2Z" style="fill:#769ad6;fill-rule:nonzero;"/><path d="M427,136l0,-42l8.5,0c7.7,0 8.5,0.2 8.5,1.9c0,2.4 1.7,3.6 3.3,2.3c4.9,-4 9.4,-5.4 16.8,-5.4c10.1,0 16.5,2.7 21.9,9.2c5,6 6.7,9.9 8.1,19c2.2,14.1 -4,27.7 -15.6,34.5c-7.7,4.6 -21.2,4.5 -28,-0.1c-2,-1.3 -3.8,-2.4 -4,-2.4c-0.2,0 -0.6,5.5 -0.7,12.3l-0.3,12.2l-9.2,0.3l-9.3,0.3l0,-42.1Zm41.7,2.9c4.4,-2.8 6.6,-7.2 6.7,-13.6c0.1,-8.3 -5.5,-14.2 -14.3,-15.1c-4.2,-0.4 -5.7,0 -8.6,1.9c-4.1,2.8 -7.5,9.1 -7.5,13.9c0,4.5 4.2,11.4 8.2,13.3c4.7,2.3 11.3,2.1 15.5,-0.4Z" style="fill:#769ad6;fill-rule:nonzero;"/><path d="M295.3,157.5c-28.3,-7.7 -32.3,-48.3 -6,-61.3c5.9,-3 7.7,-3.4 14.7,-3.4c15.3,-0.1 25.1,5.9 31.1,18.9c2.4,5.1 2.9,7.6 2.9,13.8c0,16.3 -8.7,28.1 -23.7,32c-7,1.8 -12.2,1.8 -19,0Zm17.4,-18.6c4.5,-2.8 6.7,-7.3 6.6,-13.5c0,-6.3 -2.4,-10.5 -7.3,-13.3c-4.6,-2.6 -8.2,-2.6 -13.6,-0.2c-4.5,2.1 -8.4,8.3 -8.4,13.6c0,4.3 3.9,11.5 7.4,13.6c4.2,2.6 10.9,2.5 15.3,-0.2Z" style="fill:#769ad6;fill-rule:nonzero;"/><path d="M529,158.4c-19.4,-3.7 -30.7,-24.1 -24.4,-44.1c2.3,-7.4 10,-15.8 17.3,-19c7.3,-3.3 19.1,-3.4 27.2,-0.4c6.4,2.4 13.2,9 17,16.2c2.8,5.4 3.8,18.6 1.9,24.5c-3.1,9.5 -11.4,18.3 -19.9,21.3c-3.9,1.3 -15.3,2.2 -19.1,1.5Zm14.3,-19.2c10.5,-7 9.4,-23 -2,-27.8c-4.4,-1.9 -6.9,-1.8 -11.9,0.6c-3.3,1.7 -4.6,3.1 -6.3,7c-1.2,2.7 -2.1,5.9 -2.1,7.1c0,3.8 4.1,11 7.4,13c4,2.4 11.2,2.5 14.9,0.1Z" style="fill:#769ad6;fill-rule:nonzero;"/><path d="M242.2,115.3l0.3,-41.8l8.7,-0.3c8.4,-0.3 8.8,-0.2 9.3,2c0.3,1.3 0.4,20.1 0.3,41.8l-0.3,39.5l-9.3,0.3l-9.2,0.3l0.2,-41.8Z" style="fill:#769ad6;fill-rule:nonzero;"/><path d="M583.8,132.8l-0.3,-24.3l-4.5,-0.5l-4.5,-0.5l-0.3,-4.4c-0.6,-7.5 0.2,-8.9 5.1,-9.3l4.2,-0.3l0.3,-10.2l0.3,-10.3l17.8,0l0.3,10.3l0.3,10.2l4.3,0.3l4.2,0.3l0,13.8l-4.2,0.3l-4.3,0.3l-0.3,24.3l-0.2,24.2l-9,0l-9,0l-0.2,-24.2Z" style="fill:#769ad6;fill-rule:nonzero;"/><text x="299.852px" y="64.449px" style="font-family:'Arial-BoldMT', 'Arial', sans-serif;font-weight:700;font-size:39.991px;fill:#769ad6;">powered by</text></g></svg>