<?xml version="1.0" encoding="UTF-8" standalone="no"?><!DOCTYPE svg PUBLIC "-//W3C//DTD SVG 1.1//EN" "http://www.w3.org/Graphics/SVG/1.1/DTD/svg11.dtd"><svg width="100%" height="100%" viewBox="0 0 84 84" version="1.1" xmlns="http://www.w3.org/2000/svg" xmlns:xlink="http://www.w3.org/1999/xlink" xml:space="preserve" xmlns:serif="http://www.serif.com/" style="fill-rule:evenodd;clip-rule:evenodd;stroke-linejoin:round;stroke-miterlimit:1.41421;"><rect id="Artboard1" x="0" y="0" width="83.333" height="83.333" style="fill:none;"/><clipPath id="_clip1"><rect id="Artboard11" serif:id="Artboard1" x="0" y="0" width="83.333" height="83.333"/></clipPath><g clip-path="url(#_clip1)"><path d="M12.459,26.161c-0.29,-0.118 4.186,-14.456 28.831,-14.338c24.69,0.117 29.186,14.438 28.83,14.601l-57.661,-0.263Z" style="fill:none;"/><clipPath id="_clip2"><path d="M12.459,26.161c-0.29,-0.118 4.186,-14.456 28.831,-14.338c24.69,0.117 29.186,14.438 28.83,14.601l-57.661,-0.263Z"/></clipPath><g clip-path="url(#_clip2)"><rect x="12.672" y="12.328" width="1.486" height="6.702" style="fill:#9fa8da;"/><path d="M21.59,16.173l0,-1.309l-7.61,0l0,1.309l7.61,0Z" style="fill:#9fa8da;"/><path d="M21.703,25.619l0,-1.309l-7.61,0l0,1.309l7.61,0Z" style="fill:#9fa8da;"/><path d="M25.397,20.721l0,-1.309l-7.61,0l0,1.309l7.61,0Z" style="fill:#9fa8da;"/><rect x="20.307" y="20.311" width="1.486" height="2.693" style="fill:#9fa8da;"/><rect x="16.414" y="15.696" width="1.486" height="2.247" style="fill:#9fa8da;"/><rect x="16.414" y="18.828" width="1.486" height="2.247" style="fill:#9fa8da;"/><path d="M63.195,16.107l0,-1.309l-7.609,0l0,1.309l7.609,0Z" style="fill:#9fa8da;"/><rect x="58.105" y="15.698" width="1.486" height="2.693" style="fill:#9fa8da;"/><rect x="54.212" y="14.215" width="1.486" height="2.247" style="fill:#9fa8da;"/><path d="M24.091,15.998l0,-1.309l7.61,0l0,1.309l-7.61,0Z" style="fill:#9fa8da;"/><rect x="27.695" y="15.588" width="1.486" height="2.693" style="fill:#9fa8da;"/><rect x="27.695" y="18.81" width="1.486" height="2.693" style="fill:#9fa8da;"/><rect x="27.695" y="23.781" width="1.486" height="2.693" style="fill:#9fa8da;"/><rect x="23.992" y="23.781" width="1.486" height="2.693" style="fill:#9fa8da;"/><path d="M38.902,19.566l0,1.309l7.609,0l0,-1.309l-7.609,0Z" style="fill:#9fa8da;"/><rect x="45.069" y="14.17" width="1.486" height="6.702" style="fill:#9fa8da;"/><path d="M35.108,14.793l0,1.309l7.609,0l0,-1.309l-7.609,0Z" style="fill:#9fa8da;"/><path d="M46.186,17.403l0,1.309l4.467,0l0,-1.309l-4.467,0Z" style="fill:#9fa8da;"/><path d="M51.793,17.403l0,1.309l4.467,0l0,-1.309l-4.467,0Z" style="fill:#9fa8da;"/><path d="M31.442,17.909l0,1.309l5.182,0l0,-1.309l-5.182,0Z" style="fill:#9fa8da;"/><path d="M35.207,24.463l0,1.309l7.61,0l0,-1.309l-7.61,0Z" style="fill:#9fa8da;"/><rect x="38.811" y="22.18" width="1.486" height="2.693" style="fill:#9fa8da;"/><rect x="42.704" y="24.109" width="1.486" height="2.247" style="fill:#9fa8da;"/><path d="M55.819,24.463l0,1.309l-7.61,0l0,-1.309l7.61,0Z" style="fill:#9fa8da;"/><rect x="50.729" y="22.18" width="1.486" height="2.693" style="fill:#9fa8da;"/><path d="M70.028,24.463l0,1.309l-7.609,0l0,-1.309l7.609,0Z" style="fill:#9fa8da;"/><rect x="64.938" y="22.18" width="1.486" height="2.693" style="fill:#9fa8da;"/><rect x="46.836" y="24.109" width="1.486" height="2.247" style="fill:#9fa8da;"/><rect x="31.423" y="23.682" width="1.486" height="2.693" style="fill:#9fa8da;"/><rect x="31.423" y="18.71" width="1.486" height="2.693" style="fill:#9fa8da;"/><rect x="35.126" y="18.71" width="1.486" height="2.693" style="fill:#9fa8da;"/><rect x="54.293" y="20.202" width="1.486" height="2.693" style="fill:#9fa8da;"/><path d="M58.041,19.301l0,1.309l5.182,0l0,-1.309l-5.182,0Z" style="fill:#9fa8da;"/><rect x="58.022" y="20.102" width="1.486" height="2.693" style="fill:#9fa8da;"/><rect x="61.725" y="20.102" width="1.486" height="2.693" style="fill:#9fa8da;"/><rect x="31.587" y="14.105" width="1.486" height="2.247" style="fill:#9fa8da;"/><rect x="23.386" y="14.615" width="1.486" height="2.247" style="fill:#9fa8da;"/></g><path d="M12.736,66.736l57.507,0l0,7.509c-0.436,2.43 -1.269,4.011 -2.619,4.49l-52.067,0c-1.325,-0.254 -2.262,-1.922 -2.845,-4.877l0.024,-7.122Z" style="fill:none;"/><clipPath id="_clip3"><path d="M12.736,66.736l57.507,0l0,7.509c-0.436,2.43 -1.269,4.011 -2.619,4.49l-52.067,0c-1.325,-0.254 -2.262,-1.922 -2.845,-4.877l0.024,-7.122Z"/></clipPath><g clip-path="url(#_clip3)"><rect x="12.672" y="63.838" width="1.694" height="7.591" style="fill:#9fa8da;"/><path d="M22.839,68.192l0,-1.483l-8.675,0l0,1.483l8.675,0Z" style="fill:#9fa8da;"/><path d="M22.967,78.891l0,-1.483l-8.675,0l0,1.483l8.675,0Z" style="fill:#9fa8da;"/><path d="M27.179,73.344l0,-1.483l-8.675,0l0,1.483l8.675,0Z" style="fill:#9fa8da;"/><rect x="21.376" y="72.879" width="1.694" height="3.05" style="fill:#9fa8da;"/><rect x="16.938" y="67.652" width="1.694" height="2.545" style="fill:#9fa8da;"/><rect x="16.938" y="71.2" width="1.694" height="2.545" style="fill:#9fa8da;"/><path d="M70.27,68.118l0,-1.483l-8.675,0l0,1.483l8.675,0Z" style="fill:#9fa8da;"/><rect x="64.468" y="67.654" width="1.694" height="3.05" style="fill:#9fa8da;"/><rect x="60.03" y="65.974" width="1.694" height="2.545" style="fill:#9fa8da;"/><path d="M25.69,67.994l0,-1.483l8.675,0l0,1.483l-8.675,0Z" style="fill:#9fa8da;"/><rect x="29.798" y="67.53" width="1.694" height="3.05" style="fill:#9fa8da;"/><rect x="29.798" y="71.179" width="1.694" height="3.05" style="fill:#9fa8da;"/><rect x="29.798" y="76.81" width="1.694" height="3.05" style="fill:#9fa8da;"/><rect x="25.577" y="76.81" width="1.694" height="3.05" style="fill:#9fa8da;"/><path d="M42.575,72.035l0,1.482l8.675,0l0,-1.482l-8.675,0Z" style="fill:#9fa8da;"/><rect x="49.606" y="65.924" width="1.694" height="7.591" style="fill:#9fa8da;"/><path d="M38.25,66.629l0,1.483l8.675,0l0,-1.483l-8.675,0Z" style="fill:#9fa8da;"/><path d="M50.88,69.585l0,1.483l5.091,0l0,-1.483l-5.091,0Z" style="fill:#9fa8da;"/><path d="M57.272,69.585l0,1.483l5.091,0l0,-1.483l-5.091,0Z" style="fill:#9fa8da;"/><path d="M34.071,70.159l0,1.482l5.907,0l0,-1.482l-5.907,0Z" style="fill:#9fa8da;"/><path d="M38.363,77.582l0,1.483l8.675,0l0,-1.483l-8.675,0Z" style="fill:#9fa8da;"/><rect x="42.471" y="74.997" width="1.694" height="3.05" style="fill:#9fa8da;"/><rect x="46.909" y="77.181" width="1.694" height="2.545" style="fill:#9fa8da;"/><path d="M61.861,77.582l0,1.483l-8.675,0l0,-1.483l8.675,0Z" style="fill:#9fa8da;"/><rect x="56.058" y="74.997" width="1.694" height="3.05" style="fill:#9fa8da;"/><rect x="51.62" y="77.181" width="1.694" height="2.545" style="fill:#9fa8da;"/><rect x="34.049" y="76.697" width="1.694" height="3.05" style="fill:#9fa8da;"/><rect x="34.049" y="71.066" width="1.694" height="3.05" style="fill:#9fa8da;"/><rect x="38.271" y="71.066" width="1.694" height="3.05" style="fill:#9fa8da;"/><rect x="60.122" y="72.755" width="1.694" height="3.05" style="fill:#9fa8da;"/><path d="M64.394,71.735l0,1.483l5.908,0l0,-1.483l-5.908,0Z" style="fill:#9fa8da;"/><rect x="64.373" y="72.643" width="1.694" height="3.05" style="fill:#9fa8da;"/><rect x="68.594" y="72.643" width="1.694" height="3.05" style="fill:#9fa8da;"/><rect x="34.236" y="65.85" width="1.694" height="2.545" style="fill:#9fa8da;"/><rect x="24.887" y="66.427" width="1.694" height="2.545" style="fill:#9fa8da;"/></g><ellipse cx="41.468" cy="7.721" rx="4.376" ry="4.253" style="fill:none;"/><clipPath id="_clip4"><ellipse cx="41.468" cy="7.721" rx="4.376" ry="4.253"/></clipPath><g clip-path="url(#_clip4)"><path d="M38.148,4.727l0,1.445l6.524,0l0,-1.445l-6.524,0Z" style="fill:#9fa8da;"/><rect x="43.183" y="4.821" width="1.486" height="6.702" style="fill:#9fa8da;"/><path d="M45.298,11.616l0,-1.444l-6.895,0l0,1.444l6.895,0Z" style="fill:#9fa8da;"/><rect x="38.161" y="4.719" width="1.486" height="6.702" style="fill:#9fa8da;"/></g><text x="12.012px" y="63.897px" style="font-family:'Bebas';font-size:20.353px;fill:#5c6bc0;stroke:#5c6bc0;stroke-width:0.33px;">C<tspan x="23.182px 34.559px 50.116px 60.051px " y="63.897px 63.897px 63.897px 63.897px ">OMER</tspan></text><text x="17.803px" y="43.427px" style="font-family:'Bebas';font-size:15.492px;fill:#5c6bc0;">Q<tspan x="26.418px 35.101px 39.153px 46.715px 55.364px " y="43.427px 43.427px 43.427px 43.427px 43.427px ">UIERO</tspan></text></g></svg>