<?xml version="1.0" encoding="UTF-8" standalone="no"?><!DOCTYPE svg PUBLIC "-//W3C//DTD SVG 1.1//EN" "http://www.w3.org/Graphics/SVG/1.1/DTD/svg11.dtd"><svg width="100%" height="100%" viewBox="0 0 67 67" version="1.1" xmlns="http://www.w3.org/2000/svg" xmlns:xlink="http://www.w3.org/1999/xlink" xml:space="preserve" xmlns:serif="http://www.serif.com/" style="fill-rule:evenodd;clip-rule:evenodd;stroke-linejoin:round;stroke-miterlimit:1.41421;"><rect id="Artboard1" x="0" y="0" width="66.667" height="66.667" style="fill:none;"/><clipPath id="_clip1"><rect id="Artboard11" serif:id="Artboard1" x="0" y="0" width="66.667" height="66.667"/></clipPath><g clip-path="url(#_clip1)"><path d="M53.827,30.8c0,-1.62 -3.234,-2.686 -8.939,-3.315c-3.748,-0.413 -5.651,-0.172 -6.895,0.291c-0.355,-0.028 -0.709,-0.054 -1.06,-0.078c-2.357,-0.195 -4.744,-0.217 -7.107,-0.121c-1.896,0.078 -4.35,0.14 -5.957,1.015c-0.498,0.271 -0.831,0.618 -0.887,1.094c-0.047,0.388 0.452,0.8 -0.214,1.052c-0.989,0.376 -2.36,0.687 -3.435,0.78c-1.049,0.092 -4.993,0.599 -3.136,1.863c1.372,0.934 4.204,0.83 5.938,0.882c1.287,0.037 2.573,0.049 3.851,0.193c0.317,0.036 1.38,0.114 1.021,0.479c-0.264,0.269 -0.725,0.535 -0.738,0.908c-0.056,1.57 3.29,1.905 4.732,2.032c2.621,0.233 5.281,0.069 7.777,-0.553c1,-0.248 2.049,-0.563 2.902,-1.04c1.262,-0.708 2.753,-0.41 4.215,-0.406c1.478,0.004 3.526,-0.035 4.739,-0.763c0.915,-0.549 0.875,-1.321 0.216,-1.911c1.196,-0.349 2.977,-1.09 2.977,-2.402" style="fill:#f1f1f1;fill-rule:nonzero;"/><path d="M47.583,31.456c-0.684,-0.471 -1.622,-0.668 -2.424,-0.881c-0.461,-0.123 -0.922,-0.241 -1.373,-0.393c-0.123,-0.042 -0.24,-0.092 -0.354,-0.147c0.034,-0.011 0.072,-0.024 0.118,-0.04c0.811,-0.263 2.216,-0.487 2.282,-1.488c0.059,-0.898 -1.456,-1.314 -2.133,-1.525c-3.078,-0.962 -6.55,-1.339 -9.775,-1.529c-2.362,-0.183 -4.749,-0.156 -7.109,0.014c-1.893,0.136 -4.345,0.266 -5.928,1.361c-0.49,0.34 -0.814,0.767 -0.857,1.343c-0.036,0.471 0.474,0.958 -0.185,1.279c-0.979,0.477 -2.352,0.373 -3.425,0.51c-1.046,0.134 -4.963,1.347 -3.072,2.835c1.397,1.099 4.225,0.91 5.96,0.932c1.287,0.017 2.574,0.003 3.856,0.148c0.317,0.036 1.382,0.107 1.034,0.556c-0.257,0.331 -0.711,0.664 -0.714,1.116c-0.013,1.901 3.341,2.229 4.786,2.352c2.627,0.222 5.282,-0.036 7.76,-0.844c0.993,-0.324 2.034,-0.728 2.873,-1.325c1.243,-0.884 2.742,-0.557 4.203,-0.585c1.478,-0.029 3.524,-0.122 4.717,-1.031c1.056,-0.803 0.791,-1.95 -0.24,-2.658" style="fill:#f6df54;fill-rule:nonzero;"/><path d="M40.121,32.445c2.533,-1.997 3.017,-5.7 2.31,-8.683c-0.985,-4.152 -4.668,-6.371 -8.715,-6.696c-3.809,-0.306 -7.533,1.034 -9.667,4.287c-1.854,2.827 -1.516,6.089 0.008,9.197" style="fill:#fedf49;fill-rule:nonzero;"/><path d="M23.315,28.301c-0.101,-0.375 -0.174,-0.657 -0.211,-0.872c-0.044,-0.214 -0.072,-0.357 -0.082,-0.453l-0.027,-0.192c-0.104,-0.522 -0.15,-0.79 -0.203,-0.788c-0.04,0.002 -0.086,0.276 -0.05,0.822l0.027,0.197c0.011,0.099 0.04,0.245 0.084,0.464c0.039,0.221 0.113,0.51 0.217,0.893c0.059,0.189 0.11,0.355 0.155,0.501c0.052,0.142 0.096,0.265 0.134,0.37c0.074,0.211 0.133,0.347 0.171,0.438l0.076,0.184c0.513,0.962 0.61,0.899 0.235,-0.1l-0.074,-0.18c-0.038,-0.09 -0.096,-0.224 -0.168,-0.431c-0.037,-0.103 -0.081,-0.223 -0.131,-0.363c-0.044,-0.142 -0.095,-0.304 -0.153,-0.49" style="fill:#feeca3;fill-rule:nonzero;"/><path d="M41.93,29.816c-0.428,0.967 -0.776,1.378 -0.938,1.582c-0.08,0.104 -0.124,0.153 -0.147,0.177l-0.022,0.024c-0.455,0.561 -0.737,0.803 -0.702,0.847c0.021,0.029 0.365,-0.14 0.894,-0.678l0.023,-0.026c0.024,-0.025 0.07,-0.075 0.153,-0.184c0.169,-0.212 0.531,-0.641 0.974,-1.642c0.213,-0.504 0.318,-0.901 0.398,-1.196c0.073,-0.299 0.112,-0.499 0.134,-0.633c0.027,-0.134 0.035,-0.201 0.04,-0.235l0.005,-0.034c0.069,-0.745 0.017,-1.117 -0.023,-1.118c-0.053,-0.003 -0.094,0.366 -0.23,1.08l-0.005,0.033c-0.004,0.033 -0.013,0.099 -0.038,0.229c-0.022,0.13 -0.06,0.325 -0.131,0.615c-0.078,0.287 -0.179,0.672 -0.385,1.159" style="fill:#feeca3;fill-rule:nonzero;"/><path d="M26.346,27.333c-0.793,0 -1.438,-0.645 -1.438,-1.438c0,-0.141 0.115,-0.255 0.256,-0.255c0.142,0 0.256,0.114 0.256,0.255c0,0.511 0.415,0.926 0.926,0.926c0.51,0 0.926,-0.415 0.926,-0.926c0,-0.141 0.114,-0.255 0.255,-0.255c0.142,0 0.256,0.114 0.256,0.255c0,0.793 -0.645,1.438 -1.437,1.438" style="fill:#d3ae20;fill-rule:nonzero;"/><path d="M37.053,27.333c-0.792,0 -1.437,-0.645 -1.437,-1.438c0,-0.141 0.114,-0.255 0.255,-0.255c0.142,0 0.256,0.114 0.256,0.255c0,0.511 0.415,0.926 0.926,0.926c0.51,0 0.926,-0.415 0.926,-0.926c0,-0.141 0.114,-0.255 0.255,-0.255c0.142,0 0.256,0.114 0.256,0.255c0,0.793 -0.645,1.438 -1.437,1.438" style="fill:#d3ae20;fill-rule:nonzero;"/><path d="M31.485,27.663c0.792,0 1.437,0.645 1.437,1.437c0,0.141 -0.114,0.256 -0.255,0.256c-0.142,0 -0.256,-0.115 -0.256,-0.256c0,-0.511 -0.415,-0.926 -0.926,-0.926c-0.511,0 -0.926,0.415 -0.926,0.926c0,0.141 -0.114,0.256 -0.255,0.256c-0.142,0 -0.256,-0.115 -0.256,-0.256c0,-0.792 0.645,-1.437 1.437,-1.437" style="fill:#d3ae20;fill-rule:nonzero;"/><g><g opacity="0.399994"><g><clipPath id="_clip2"><rect x="25.114" y="18.31" width="8.407" height="5.735" clip-rule="nonzero"/></clipPath><g clip-path="url(#_clip2)"><path d="M33.514,18.899c0.079,0.473 -0.559,0.775 -1.109,0.866c-0.55,0.091 -1.237,0.097 -1.315,-0.376c-0.079,-0.475 0.503,-0.966 1.053,-1.057c0.549,-0.091 1.293,0.092 1.371,0.567" style="fill:#fff;fill-rule:nonzero;"/><path d="M25.688,24.03c-0.647,0.149 -0.735,-0.903 -0.324,-1.639c0.981,-1.736 2.12,-2.499 3.305,-2.947c1.021,-0.361 2.367,-0.12 1.683,1.001c-0.354,0.579 -3.436,3.479 -4.664,3.585" style="fill:#fff;fill-rule:nonzero;"/></g></g></g></g><g><path d="M12.456,41.977l1.016,3.417l0,-3.417l0.767,0l0,5.084l-0.823,0l-1.054,-3.255l0,3.255l-0.766,0l0,-5.084l0.86,0Z" style="fill:#fff;fill-rule:nonzero;"/><path d="M16.124,41.917c0.337,0 0.625,0.118 0.861,0.356c0.236,0.238 0.355,0.525 0.355,0.86l0,2.772c0,0.338 -0.119,0.625 -0.357,0.862c-0.238,0.236 -0.524,0.355 -0.859,0.355c-0.338,0 -0.625,-0.119 -0.86,-0.357c-0.235,-0.238 -0.352,-0.524 -0.352,-0.86l0,-2.772c0,-0.338 0.118,-0.625 0.356,-0.862c0.238,-0.236 0.523,-0.354 0.856,-0.354Zm0.417,1.199c0,-0.121 -0.042,-0.225 -0.128,-0.31c-0.085,-0.085 -0.188,-0.127 -0.31,-0.127c-0.121,0 -0.225,0.042 -0.312,0.127c-0.086,0.085 -0.13,0.189 -0.13,0.31l0,2.781c0,0.122 0.044,0.225 0.13,0.31c0.087,0.086 0.191,0.128 0.312,0.128c0.122,0 0.225,-0.042 0.31,-0.128c0.086,-0.085 0.128,-0.188 0.128,-0.31l0,-2.781Z" style="fill:#fff;fill-rule:nonzero;"/><path d="M19.448,47.061l0,-5.084l2.181,0l0,0.771l-1.415,0l0,1.386l1.033,0l0,0.77l-1.033,0l0,1.387l1.415,0l0,0.77l-2.181,0Z" style="fill:#fff;fill-rule:nonzero;"/><path d="M23.016,41.977l1.016,3.417l0,-3.417l0.767,0l0,5.084l-0.823,0l-1.054,-3.255l0,3.255l-0.766,0l0,-5.084l0.86,0Z" style="fill:#fff;fill-rule:nonzero;"/><path d="M26.688,47.126c-0.338,0 -0.625,-0.119 -0.862,-0.355c-0.236,-0.237 -0.355,-0.522 -0.355,-0.857l0,-2.773c0,-0.338 0.119,-0.625 0.357,-0.862c0.238,-0.236 0.524,-0.354 0.86,-0.354c0.337,0 0.624,0.119 0.859,0.356c0.235,0.238 0.353,0.525 0.353,0.86l0,0.579l-0.795,0l0,-0.595c0,-0.122 -0.043,-0.226 -0.13,-0.313c-0.086,-0.086 -0.19,-0.129 -0.312,-0.129c-0.121,0 -0.225,0.043 -0.31,0.129c-0.085,0.087 -0.128,0.191 -0.128,0.313l0,2.78c0,0.122 0.043,0.225 0.128,0.311c0.085,0.085 0.189,0.127 0.31,0.127c0.122,0 0.226,-0.042 0.312,-0.127c0.087,-0.086 0.13,-0.189 0.13,-0.311l0,-0.701l0.795,0l0,0.71c0,0.337 -0.119,0.624 -0.357,0.859c-0.238,0.235 -0.523,0.353 -0.855,0.353Z" style="fill:#fff;fill-rule:nonzero;"/><path d="M29.728,41.917c0.338,0 0.625,0.118 0.861,0.356c0.237,0.238 0.355,0.525 0.355,0.86l0,2.772c0,0.338 -0.119,0.625 -0.357,0.862c-0.238,0.236 -0.524,0.355 -0.859,0.355c-0.338,0 -0.624,-0.119 -0.859,-0.357c-0.236,-0.238 -0.353,-0.524 -0.353,-0.86l0,-2.772c0,-0.338 0.119,-0.625 0.357,-0.862c0.237,-0.236 0.522,-0.354 0.855,-0.354Zm0.417,1.199c0,-0.121 -0.042,-0.225 -0.127,-0.31c-0.085,-0.085 -0.189,-0.127 -0.31,-0.127c-0.122,0 -0.226,0.042 -0.313,0.127c-0.086,0.085 -0.129,0.189 -0.129,0.31l0,2.781c0,0.122 0.043,0.225 0.129,0.31c0.087,0.086 0.191,0.128 0.313,0.128c0.121,0 0.225,-0.042 0.31,-0.128c0.085,-0.085 0.127,-0.188 0.127,-0.31l0,-2.781Z" style="fill:#fff;fill-rule:nonzero;"/><path d="M32.477,41.977l1.017,3.417l0,-3.417l0.766,0l0,5.084l-0.823,0l-1.054,-3.255l0,3.255l-0.766,0l0,-5.084l0.86,0Z" style="fill:#fff;fill-rule:nonzero;"/><path d="M35.691,42.752l-0.815,0l0,-0.771l2.392,0l0,0.771l-0.811,0l0,4.309l-0.766,0l0,-4.309Z" style="fill:#fff;fill-rule:nonzero;"/><path d="M39.092,41.981c0.427,0 0.74,0.118 0.94,0.353c0.176,0.205 0.264,0.492 0.264,0.859l0,0.738c0,0.36 -0.137,0.664 -0.409,0.912l0.567,2.218l-0.829,0l-0.464,-1.914c-0.022,0 -0.045,0 -0.069,0l-0.442,0l0,1.914l-0.766,0l0,-5.08l1.208,0Zm0.458,1.225c0,-0.295 -0.146,-0.442 -0.438,-0.442l-0.462,0l0,1.625l0.462,0c0.122,0 0.225,-0.043 0.31,-0.129c0.086,-0.087 0.128,-0.191 0.128,-0.313l0,-0.741Z" style="fill:#fff;fill-rule:nonzero;"/><path d="M42.054,45.893l-0.186,1.168l-0.798,0l0.864,-5.08l1.054,0l0.851,5.08l-0.806,0l-0.179,-1.168l-0.8,0Zm0.403,-2.748l-0.284,2.002l0.567,0l-0.283,-2.002Z" style="fill:#fff;fill-rule:nonzero;"/><path d="M45.25,47.061l-0.767,0l0,-5.084l1.1,0l0.714,3.652l0.685,-3.652l1.057,0l0,5.084l-0.767,0l0,-3.195l-0.664,3.195l-0.616,0l-0.742,-3.186l0,3.186Z" style="fill:#fff;fill-rule:nonzero;"/><path d="M49.924,41.917c0.337,0 0.625,0.118 0.861,0.356c0.236,0.238 0.355,0.525 0.355,0.86l0,2.772c0,0.338 -0.119,0.625 -0.357,0.862c-0.238,0.236 -0.524,0.355 -0.859,0.355c-0.338,0 -0.625,-0.119 -0.86,-0.357c-0.235,-0.238 -0.352,-0.524 -0.352,-0.86l0,-2.772c0,-0.338 0.118,-0.625 0.356,-0.862c0.238,-0.236 0.523,-0.354 0.856,-0.354Zm0.417,1.199c0,-0.121 -0.042,-0.225 -0.128,-0.31c-0.085,-0.085 -0.188,-0.127 -0.31,-0.127c-0.121,0 -0.225,0.042 -0.312,0.127c-0.086,0.085 -0.13,0.189 -0.13,0.31l0,2.781c0,0.122 0.044,0.225 0.13,0.31c0.087,0.086 0.191,0.128 0.312,0.128c0.122,0 0.225,-0.042 0.31,-0.128c0.086,-0.085 0.128,-0.188 0.128,-0.31l0,-2.781Z" style="fill:#fff;fill-rule:nonzero;"/><path d="M54.302,45.796c0.005,0.354 -0.087,0.657 -0.276,0.908c-0.124,0.17 -0.3,0.291 -0.527,0.361c-0.122,0.038 -0.264,0.057 -0.426,0.057c-0.3,0 -0.548,-0.075 -0.746,-0.223c-0.164,-0.122 -0.295,-0.288 -0.391,-0.497c-0.096,-0.209 -0.152,-0.449 -0.168,-0.72l0.73,-0.052c0.032,0.296 0.11,0.51 0.235,0.644c0.092,0.1 0.197,0.148 0.316,0.142c0.168,-0.005 0.301,-0.088 0.401,-0.247c0.052,-0.079 0.077,-0.191 0.077,-0.337c0,-0.211 -0.096,-0.421 -0.287,-0.629c-0.152,-0.143 -0.379,-0.358 -0.682,-0.645c-0.254,-0.246 -0.433,-0.467 -0.539,-0.661c-0.113,-0.22 -0.17,-0.458 -0.17,-0.715c0,-0.462 0.155,-0.812 0.466,-1.05c0.192,-0.144 0.43,-0.215 0.714,-0.215c0.273,0 0.506,0.06 0.701,0.182c0.151,0.095 0.274,0.227 0.367,0.397c0.093,0.171 0.149,0.366 0.168,0.588l-0.734,0.134c-0.021,-0.208 -0.081,-0.37 -0.178,-0.487c-0.07,-0.083 -0.172,-0.125 -0.304,-0.125c-0.141,0 -0.247,0.062 -0.32,0.186c-0.06,0.1 -0.089,0.224 -0.089,0.373c0,0.233 0.1,0.469 0.3,0.71c0.075,0.091 0.189,0.2 0.34,0.324c0.178,0.148 0.296,0.253 0.353,0.312c0.189,0.189 0.335,0.376 0.438,0.559c0.048,0.087 0.087,0.167 0.117,0.24c0.073,0.181 0.111,0.343 0.114,0.486Z" style="fill:#fff;fill-rule:nonzero;"/><path d="M13.939,56.037l-2.088,0l0,-5.079l0.766,0l0,4.317l1.322,0l0,0.762Z" style="fill:#fff;fill-rule:nonzero;"/><path d="M15.678,50.893c0.337,0 0.625,0.119 0.861,0.357c0.237,0.237 0.355,0.524 0.355,0.859l0,2.773c0,0.338 -0.119,0.625 -0.357,0.861c-0.238,0.237 -0.524,0.355 -0.859,0.355c-0.338,0 -0.625,-0.119 -0.86,-0.357c-0.235,-0.238 -0.352,-0.524 -0.352,-0.859l0,-2.773c0,-0.338 0.119,-0.625 0.356,-0.861c0.238,-0.237 0.523,-0.355 0.856,-0.355Zm0.417,1.2c0,-0.122 -0.042,-0.225 -0.127,-0.31c-0.086,-0.085 -0.189,-0.128 -0.311,-0.128c-0.121,0 -0.225,0.043 -0.312,0.128c-0.086,0.085 -0.129,0.188 -0.129,0.31l0,2.781c0,0.121 0.043,0.225 0.129,0.31c0.087,0.085 0.191,0.127 0.312,0.127c0.122,0 0.225,-0.042 0.311,-0.127c0.085,-0.085 0.127,-0.189 0.127,-0.31l0,-2.781Z" style="fill:#fff;fill-rule:nonzero;"/><path d="M21.43,54.882c0,0.219 -0.054,0.421 -0.162,0.608c0.067,0.078 0.165,0.117 0.292,0.117l0,0.714c-0.384,0 -0.646,-0.12 -0.787,-0.361c-0.17,0.092 -0.355,0.138 -0.555,0.138c-0.338,0 -0.625,-0.119 -0.862,-0.357c-0.236,-0.238 -0.354,-0.524 -0.354,-0.859l0,-2.773c0,-0.338 0.119,-0.625 0.356,-0.861c0.238,-0.237 0.525,-0.355 0.86,-0.355c0.338,0 0.624,0.119 0.859,0.359c0.235,0.239 0.353,0.525 0.353,0.857l0,2.773Zm-0.795,-2.789c0,-0.122 -0.043,-0.225 -0.129,-0.31c-0.087,-0.085 -0.191,-0.128 -0.312,-0.128c-0.122,0 -0.225,0.043 -0.311,0.128c-0.085,0.085 -0.127,0.188 -0.127,0.31l0,2.781c0,0.121 0.042,0.225 0.127,0.31c0.086,0.085 0.189,0.127 0.311,0.127c0.121,0 0.225,-0.042 0.312,-0.127c0.086,-0.085 0.129,-0.189 0.129,-0.31l0,-2.781Z" style="fill:#fff;fill-rule:nonzero;"/><path d="M23.299,56.094c-0.338,0 -0.625,-0.118 -0.86,-0.353c-0.235,-0.235 -0.352,-0.52 -0.352,-0.855l0,-3.928l0.75,0l0,3.92c0,0.121 0.043,0.225 0.129,0.31c0.087,0.085 0.191,0.128 0.312,0.128c0.122,0 0.225,-0.043 0.311,-0.128c0.085,-0.085 0.127,-0.189 0.127,-0.31l0,-3.92l0.799,0l0,3.928c0,0.34 -0.119,0.627 -0.357,0.859c-0.238,0.233 -0.524,0.349 -0.859,0.349Z" style="fill:#fff;fill-rule:nonzero;"/><path d="M25.196,56.037l0,-5.083l2.181,0l0,0.77l-1.415,0l0,1.386l1.034,0l0,0.77l-1.034,0l0,1.387l1.415,0l0,0.77l-2.181,0Z" style="fill:#fff;fill-rule:nonzero;"/><path d="M29.485,56.037l0,-5.083l1.147,0c0.303,0 0.576,0.079 0.819,0.239c0.208,0.135 0.356,0.344 0.446,0.628c0.048,0.152 0.073,0.331 0.073,0.539c0,0.341 -0.091,0.614 -0.272,0.819c-0.076,0.087 -0.165,0.153 -0.268,0.199c0.171,0.065 0.315,0.193 0.434,0.385c0.079,0.13 0.137,0.297 0.175,0.503c0.018,0.105 0.028,0.223 0.028,0.352c0,0.322 -0.061,0.595 -0.183,0.819c-0.094,0.176 -0.228,0.316 -0.401,0.422c-0.194,0.119 -0.388,0.178 -0.58,0.178l-1.418,0Zm0.827,-0.758l0.32,0c0.259,0 0.439,-0.134 0.539,-0.401c0.035,-0.092 0.053,-0.198 0.053,-0.316c0,-0.284 -0.054,-0.491 -0.162,-0.621c-0.098,-0.119 -0.241,-0.178 -0.43,-0.178l-0.32,0l0,1.516Zm0,-2.25l0.32,0c0.238,0 0.397,-0.116 0.478,-0.348c0.03,-0.087 0.045,-0.194 0.045,-0.321c0,-0.21 -0.052,-0.37 -0.154,-0.478c-0.095,-0.1 -0.218,-0.15 -0.369,-0.15l-0.32,0l0,1.297Z" style="fill:#fff;fill-rule:nonzero;"/><path d="M33.936,56.094c-0.338,0 -0.625,-0.118 -0.86,-0.353c-0.235,-0.235 -0.352,-0.52 -0.352,-0.855l0,-3.928l0.75,0l0,3.92c0,0.121 0.043,0.225 0.129,0.31c0.087,0.085 0.191,0.128 0.312,0.128c0.122,0 0.225,-0.043 0.311,-0.128c0.085,-0.085 0.127,-0.189 0.127,-0.31l0,-3.92l0.799,0l0,3.928c0,0.34 -0.119,0.627 -0.357,0.859c-0.238,0.233 -0.524,0.349 -0.859,0.349Z" style="fill:#fff;fill-rule:nonzero;"/><path d="M38.318,54.772c0.005,0.354 -0.087,0.657 -0.276,0.908c-0.124,0.171 -0.3,0.291 -0.527,0.361c-0.122,0.038 -0.263,0.057 -0.426,0.057c-0.3,0 -0.548,-0.074 -0.745,-0.223c-0.165,-0.122 -0.296,-0.287 -0.392,-0.497c-0.096,-0.209 -0.152,-0.449 -0.168,-0.719l0.73,-0.053c0.032,0.296 0.111,0.511 0.235,0.644c0.092,0.1 0.197,0.148 0.316,0.143c0.168,-0.006 0.301,-0.088 0.401,-0.248c0.052,-0.078 0.077,-0.191 0.077,-0.337c0,-0.211 -0.095,-0.42 -0.287,-0.629c-0.152,-0.143 -0.379,-0.358 -0.681,-0.645c-0.254,-0.246 -0.434,-0.466 -0.54,-0.661c-0.113,-0.219 -0.17,-0.457 -0.17,-0.714c0,-0.463 0.156,-0.813 0.466,-1.051c0.192,-0.143 0.43,-0.215 0.714,-0.215c0.273,0 0.507,0.061 0.701,0.182c0.152,0.095 0.274,0.227 0.367,0.398c0.093,0.17 0.149,0.366 0.168,0.587l-0.733,0.134c-0.022,-0.208 -0.082,-0.37 -0.179,-0.486c-0.07,-0.084 -0.171,-0.126 -0.304,-0.126c-0.14,0 -0.247,0.062 -0.32,0.186c-0.06,0.1 -0.089,0.225 -0.089,0.373c0,0.233 0.1,0.469 0.3,0.71c0.075,0.092 0.189,0.2 0.34,0.324c0.179,0.149 0.296,0.253 0.353,0.312c0.189,0.189 0.335,0.376 0.438,0.56c0.048,0.086 0.088,0.166 0.117,0.239c0.073,0.181 0.111,0.343 0.114,0.486Z" style="fill:#fff;fill-rule:nonzero;"/><path d="M40.158,56.102c-0.338,0 -0.625,-0.118 -0.861,-0.355c-0.237,-0.236 -0.355,-0.522 -0.355,-0.857l0,-2.773c0,-0.338 0.119,-0.625 0.357,-0.861c0.238,-0.237 0.524,-0.355 0.859,-0.355c0.338,0 0.624,0.119 0.86,0.357c0.235,0.238 0.352,0.524 0.352,0.859l0,0.58l-0.794,0l0,-0.596c0,-0.122 -0.044,-0.226 -0.13,-0.312c-0.087,-0.087 -0.191,-0.13 -0.312,-0.13c-0.122,0 -0.225,0.043 -0.31,0.13c-0.085,0.086 -0.128,0.19 -0.128,0.312l0,2.781c0,0.121 0.043,0.225 0.128,0.31c0.085,0.085 0.188,0.128 0.31,0.128c0.121,0 0.225,-0.043 0.312,-0.128c0.086,-0.085 0.13,-0.189 0.13,-0.31l0,-0.702l0.794,0l0,0.71c0,0.338 -0.119,0.624 -0.357,0.859c-0.237,0.235 -0.522,0.353 -0.855,0.353Z" style="fill:#fff;fill-rule:nonzero;"/><path d="M42.792,54.87l-0.186,1.167l-0.798,0l0.864,-5.079l1.053,0l0.852,5.079l-0.806,0l-0.179,-1.167l-0.8,0Zm0.402,-2.749l-0.283,2.003l0.567,0l-0.284,-2.003Z" style="fill:#fff;fill-rule:nonzero;"/><path d="M45.221,56.037l0,-5.083l1.147,0c0.303,0 0.576,0.079 0.819,0.239c0.208,0.135 0.357,0.344 0.446,0.628c0.049,0.152 0.073,0.331 0.073,0.539c0,0.341 -0.09,0.614 -0.271,0.819c-0.076,0.087 -0.165,0.153 -0.268,0.199c0.17,0.065 0.315,0.193 0.434,0.385c0.078,0.13 0.136,0.297 0.174,0.503c0.019,0.105 0.028,0.223 0.028,0.352c0,0.322 -0.06,0.595 -0.182,0.819c-0.095,0.176 -0.228,0.316 -0.401,0.422c-0.195,0.119 -0.388,0.178 -0.58,0.178l-1.419,0Zm0.827,-0.758l0.32,0c0.26,0 0.44,-0.134 0.54,-0.401c0.035,-0.092 0.052,-0.198 0.052,-0.316c0,-0.284 -0.054,-0.491 -0.162,-0.621c-0.097,-0.119 -0.24,-0.178 -0.43,-0.178l-0.32,0l0,1.516Zm0,-2.25l0.32,0c0.238,0 0.398,-0.116 0.479,-0.348c0.03,-0.087 0.044,-0.194 0.044,-0.321c0,-0.21 -0.051,-0.37 -0.154,-0.478c-0.094,-0.1 -0.217,-0.15 -0.369,-0.15l-0.32,0l0,1.297Z" style="fill:#fff;fill-rule:nonzero;"/><path d="M49.314,54.87l-0.186,1.167l-0.798,0l0.864,-5.079l1.054,0l0.851,5.079l-0.805,0l-0.18,-1.167l-0.8,0Zm0.403,-2.749l-0.284,2.003l0.568,0l-0.284,-2.003Z" style="fill:#fff;fill-rule:nonzero;"/><path d="M54.046,54.772c0.006,0.354 -0.086,0.657 -0.275,0.908c-0.125,0.171 -0.3,0.291 -0.527,0.361c-0.122,0.038 -0.264,0.057 -0.426,0.057c-0.3,0 -0.549,-0.074 -0.746,-0.223c-0.165,-0.122 -0.295,-0.287 -0.391,-0.497c-0.096,-0.209 -0.152,-0.449 -0.168,-0.719l0.729,-0.053c0.033,0.296 0.111,0.511 0.235,0.644c0.092,0.1 0.198,0.148 0.317,0.143c0.167,-0.006 0.301,-0.088 0.401,-0.248c0.051,-0.078 0.077,-0.191 0.077,-0.337c0,-0.211 -0.096,-0.42 -0.288,-0.629c-0.151,-0.143 -0.378,-0.358 -0.681,-0.645c-0.254,-0.246 -0.434,-0.466 -0.539,-0.661c-0.114,-0.219 -0.17,-0.457 -0.17,-0.714c0,-0.463 0.155,-0.813 0.466,-1.051c0.192,-0.143 0.43,-0.215 0.713,-0.215c0.273,0 0.507,0.061 0.702,0.182c0.151,0.095 0.273,0.227 0.366,0.398c0.094,0.17 0.15,0.366 0.169,0.587l-0.734,0.134c-0.022,-0.208 -0.081,-0.37 -0.178,-0.486c-0.071,-0.084 -0.172,-0.126 -0.304,-0.126c-0.141,0 -0.248,0.062 -0.321,0.186c-0.059,0.1 -0.089,0.225 -0.089,0.373c0,0.233 0.1,0.469 0.3,0.71c0.076,0.092 0.189,0.2 0.341,0.324c0.178,0.149 0.296,0.253 0.352,0.312c0.19,0.189 0.335,0.376 0.438,0.56c0.049,0.086 0.088,0.166 0.118,0.239c0.073,0.181 0.111,0.343 0.113,0.486Z" style="fill:#fff;fill-rule:nonzero;"/></g></g></svg>