<?xml version="1.0" encoding="UTF-8" standalone="no"?><!DOCTYPE svg PUBLIC "-//W3C//DTD SVG 1.1//EN" "http://www.w3.org/Graphics/SVG/1.1/DTD/svg11.dtd"><svg width="100%" height="100%" viewBox="0 0 500 500" version="1.1" xmlns="http://www.w3.org/2000/svg" xmlns:xlink="http://www.w3.org/1999/xlink" xml:space="preserve" xmlns:serif="http://www.serif.com/" style="fill-rule:evenodd;clip-rule:evenodd;stroke-linejoin:round;stroke-miterlimit:1.41421;"><path d="M364.226,199.501c0,58.587 -47.057,106.084 -105.107,106.084c-58.049,0 -105.106,-47.497 -105.106,-106.084c0,-58.588 47.057,-106.083 105.106,-106.083c58.05,0 105.107,47.495 105.107,106.083Z" style="fill:#d2e1f4;fill-rule:nonzero;"/><path d="M248.486,155.784c0,0 2.523,-1.183 1.135,-16.118c0.116,-15.851 -1.066,-24.486 12.065,-26.142c11.593,0.473 15.377,6.151 15.613,9.345l0.238,3.193c0,0 -1.146,15.299 -0.988,15.772c0.158,0.474 0.318,7.256 0.318,7.256c0,0 0.235,5.362 -0.711,6.939c-0.946,1.577 -2.366,3.628 -3.392,4.101c-1.024,0.473 -2.365,1.183 -2.365,1.183c0,0 2.127,6.85 1.203,10.329c-0.631,2.374 -23.904,0.316 -23.116,-15.858Z" style="fill:#fbded6;fill-rule:nonzero;"/><path d="M213.886,295.346c4.606,2.23 10.234,4.53 16.81,6.38c8.403,2.369 15.923,3.415 21.998,3.747c-2.23,-44.91 -4.426,-89.911 -6.654,-134.822l-0.052,-1.06c0,0 -1.895,-3.156 -1.685,-6.312c0.213,-3.156 -0.421,-5.47 -0.421,-5.47c0,0 -27.559,18.935 -28.19,19.987c-0.63,1.052 -0.542,115.024 -1.806,117.55Z" style="fill:#6cb3e3;fill-rule:nonzero;"/><path d="M134.166,268.368c0,0 -0.044,0.432 -2.366,2.524c-1.148,1.034 -2.205,2.158 -5.049,3.392c-1.194,0.52 -4.821,3.447 -5.365,4.183c-1.204,1.621 -1.868,2.257 -4.708,6.045c-2.039,2.72 -7.258,4.786 -4.049,-0.13c0.952,-1.458 2.086,-2.808 3.224,-4.122c0.779,-0.9 1.58,-1.779 2.401,-2.64c0.438,-0.456 0.882,-0.91 1.333,-1.358c0.439,-0.435 1.085,-0.883 1.406,-1.4c-1.127,0.122 -2.237,1.508 -3.058,2.213c-1.43,1.231 -2.808,2.518 -4.185,3.804c-1.286,1.204 -2.45,2.532 -3.777,3.691c-0.651,0.567 -2.425,2.291 -3.42,1.627c-1.419,-0.946 5.129,-10.572 10.178,-12.306c-1.6,0.55 -2.982,1.635 -4.392,2.539c-1.781,1.143 -3.484,2.421 -4.979,3.924c-1.044,1.048 -2.612,3.43 -4.331,2.196c-0.894,-0.641 -1.349,-2.277 -0.499,-3.137c1.264,-1.264 2.564,-2.493 3.873,-3.71c1.484,-1.381 2.973,-2.803 4.606,-4.009c0.237,-0.177 0.52,-0.423 0.808,-0.501c-0.112,0.65 -1.476,1.101 -1.947,1.406c-2.142,1.383 -4.336,2.833 -6.673,3.931c-1.017,0.479 -2.24,1.123 -3.371,1.248c-1.146,0.124 -1.948,-0.982 -1.42,-2.009c0.57,-1.106 1.986,-1.856 3.08,-2.313c2.424,-1.012 5.001,-1.466 7.316,-2.753c2.15,-1.192 4.199,-2.858 5.643,-4.863c-0.913,0.805 -1.851,1.579 -2.793,2.348c-1.237,1.01 -2.57,2.302 -4.043,2.964c-0.13,0.058 -0.352,0.202 -0.503,0.135c-0.71,-0.315 -4.734,-2.288 6.469,-11.756c0,0 5.917,-5.444 15.78,-3.076c12.38,2.971 4.811,11.913 4.811,11.913Z" style="fill:#fbded6;fill-rule:nonzero;"/><path d="M227.321,213.209c0,0 -8.414,46.707 -35.765,53.438c-27.349,6.732 -55.962,4.209 -55.962,4.209c0,0 -9.258,-10.099 -7.575,-18.095c1.684,-7.993 46.286,-10.939 50.912,-19.354c4.629,-8.416 37.45,-56.384 37.45,-56.384c0,0 15.569,15.989 10.94,36.186Z" style="fill:#6cb3e3;fill-rule:nonzero;"/><path d="M276.961,132.445c7.122,-0.425 79.061,-9.341 79.061,-9.341c0,0 1.719,21.583 -0.121,21.442c-1.843,-0.142 -78.94,-8.917 -78.94,-8.917c-1.037,-0.369 -1.643,-1.03 -1.566,-1.716c0.108,-0.937 1.439,-1.423 1.566,-1.468Z" style="fill:#246a85;fill-rule:nonzero;"/><path d="M351.07,133.667c0,6.071 2.681,10.993 5.987,10.993c3.306,0 5.987,-4.922 5.987,-10.993c0,-6.071 -2.681,-10.992 -5.987,-10.992c-0.412,0 -0.816,0.077 -1.206,0.223c-2.728,1.025 -4.781,5.457 -4.781,10.769Z" style="fill:#246a85;fill-rule:nonzero;"/><path d="M352.481,133.556c0,4.808 2.039,8.706 4.56,8.706c2.517,0 4.559,-3.898 4.559,-8.706c0,-4.807 -2.042,-8.705 -4.559,-8.705c-2.521,0 -4.56,3.898 -4.56,8.705Z" style="fill:#438ecc;fill-rule:nonzero;"/><path d="M326.192,145.477c0,0 0.426,-3.418 1.984,-12.753c1.909,-11.437 -3.226,-14.61 -13.604,-5.228c-10.375,9.382 4.036,21.859 4.036,21.859l7.584,-3.878Z" style="fill:#fbded6;fill-rule:nonzero;"/><path d="M294.378,209.985c0,0 15.626,29.933 35.344,29.454c43.338,-1.052 0.841,-88.362 -2.105,-95.095c-0.421,1.263 -6.101,-2.419 -13.253,-0.315c-7.154,2.104 4.073,45.469 1.577,42.603c-19.273,-22.137 -20.828,-21.459 -20.828,-21.459l-0.735,44.812Z" style="fill:#63b7e6;fill-rule:nonzero;"/><path d="M249.67,161.386c0,0 3.47,9.783 20.828,10.414c0.946,-5.996 -0.534,-10.192 -0.534,-10.192l2.664,-3.062c0,0 10.65,1.577 11.123,21.932c0.473,20.355 6.128,120.645 6.128,120.645c-6.687,2.067 -16.456,4.3 -26.475,4.507c-2.606,0.053 -5.107,0.072 -7.531,-0.016c-2.595,-48.254 -5.187,-96.604 -7.782,-144.859l1.579,0.631Z" style="fill:#35446d;fill-rule:nonzero;"/><path d="M251.668,171.274l-5.628,-0.623l6.654,134.822c0.698,0.044 1.406,0.08 2.128,0.11c0.999,0.042 1.981,0.067 2.938,0.081c-2.031,-44.796 -4.061,-89.594 -6.092,-134.39Z" style="fill:#1373ba;fill-rule:nonzero;"/><path d="M289.89,301.134c-0.457,0.161 -0.935,0.272 -1.425,0.424c-0.894,0.276 -1.754,0.509 -2.581,0.705c-2.817,-44.441 -5.633,-88.884 -8.45,-133.326l5.94,0.365l6.516,131.832Z" style="fill:#1373ba;fill-rule:nonzero;"/><path d="M267.867,154.864c0,0 33.242,6.732 33.662,18.514c0.421,11.781 5.426,120.87 5.426,120.87c-2.202,1.013 -4.604,2.244 -7.893,3.564c-2.983,1.198 -5.039,2.102 -9.172,3.328c0,0 -6.256,-126.758 -6.455,-129.445c-0.359,-4.885 -2.628,-8.731 -15.568,-16.831Z" style="fill:#6cb3e3;fill-rule:nonzero;"/><path d="M248.406,155.705l3.262,15.569c0,0 -4.551,0.294 -5.628,-0.623c-1.618,-1.376 -2.841,-8.831 -2.158,-12.842c0.327,-1.906 4.524,-2.104 4.524,-2.104Z" style="fill:#438ecc;fill-rule:nonzero;"/><path d="M283.053,169.305c-2.888,-12.093 -8.189,-11.693 -10.82,-12.495c-2.349,-0.716 -6.626,-1.105 -3.157,1.736c3.472,2.84 8.364,10.414 8.364,10.414" style="fill:#438ecc;fill-rule:nonzero;"/><path d="M249.416,140.01c0,0 2.603,0.237 2.919,0.158c0.315,-0.079 -1.973,-5.205 -0.158,-5.363c1.812,-0.157 3.074,0.473 2.758,4.338c-0.315,3.864 0.238,13.051 1.777,15.18c1.535,2.129 3.405,8.622 13.252,7.285c2.319,-0.314 2.8,-1.106 3.492,-1.804c3.577,-3.607 5.137,-2.208 3.01,-16.482c-0.631,-0.71 -5.6,-5.047 -12.146,3.234c-2.365,2.129 -6.704,2.365 -6.861,-1.735c-0.158,-4.101 -0.316,-13.249 -0.316,-13.249c0,0 2.919,-6.782 0.711,-8.832c-2.208,-2.051 -6.939,-2.839 -6.939,-2.839c0,0 -0.849,0.794 -1.286,7.56c-0.183,2.853 -0.235,7.847 -0.213,12.549Z" style="fill:#2a3952;fill-rule:nonzero;"/><path d="M272.543,304.919l-2.413,-133.235l0.365,0.018l2.438,133.165l-0.39,0.052Z" style="fill:#6cb3e3;fill-rule:nonzero;"/><path d="M249.712,126.203c0,0 -0.13,-8.968 5.409,-11.141c5.873,-2.307 13.465,-2.702 20.108,2.957c0,0 1.624,1.918 2.214,3.896c0.127,0.42 0.39,3.733 0.39,3.733c-3.73,0.777 -8.588,1.449 -13.743,1.597c-1.781,0.052 -3.494,0.039 -5.129,-0.024c-3.458,-0.133 -6.557,-0.486 -9.249,-0.92" style="fill:#6cb3e3;fill-rule:nonzero;"/><path d="M286.053,127.363l-24.724,-0.236c0,0 8.342,0.059 16.504,-1.479c7.865,-0.059 9.047,-1.478 9.758,-0.532c0.708,0.946 -1.538,2.247 -1.538,2.247Z" style="fill:#6cb3e3;fill-rule:nonzero;"/><g><path d="M63.71,339.553l-0.562,10.158l0,11.724l4.412,0l0,-11.724l-0.562,-10.158l-3.288,0Zm3.769,-1.967l0,-4.251l-4.251,0l0,4.251l4.251,0Z" style="fill:#1373ba;fill-rule:nonzero;"/><path d="M78.483,333.335l-6.502,0l0,28.1l4.412,0l0,-10.56l2.09,0c4.416,0 6.582,-2.446 6.582,-6.942l0,-3.656c0,-4.496 -2.166,-6.942 -6.582,-6.942Zm0,4.01c1.407,0 2.17,0.643 2.17,2.651l0,4.218c0,2.009 -0.763,2.651 -2.17,2.651l-2.09,0l0,-9.52l2.09,0Z" style="fill:#1373ba;fill-rule:nonzero;"/><path d="M102.048,361.435c-0.442,-1.044 -0.482,-2.048 -0.482,-3.413l0,-4.336c0,-2.931 -0.722,-5.057 -2.927,-5.98c1.965,-0.922 2.887,-2.809 2.887,-5.701l0,-2.21c0,-4.335 -1.965,-6.46 -6.542,-6.46l-6.662,0l0,28.1l4.411,0l0,-11.443l1.528,0c2.009,0 2.894,0.964 2.894,3.573l0,4.417c0,2.288 0.16,2.73 0.401,3.453l4.492,0Zm-7.184,-24.09c1.567,0 2.251,0.884 2.251,2.892l0,2.772c0,2.25 -1.005,2.973 -2.653,2.973l-1.729,0l0,-8.637l2.131,0Z" style="fill:#1373ba;fill-rule:nonzero;"/><path d="M109.717,339.795c0,-2.008 0.884,-2.771 2.291,-2.771c1.406,0 2.291,0.763 2.291,2.771l0,15.18c0,2.008 -0.885,2.771 -2.291,2.771c-1.407,0 -2.291,-0.763 -2.291,-2.771l0,-15.18Zm-4.412,14.899c0,4.495 2.366,7.062 6.703,7.062c4.336,0 6.702,-2.567 6.702,-7.062l0,-14.618c0,-4.496 -2.366,-7.062 -6.702,-7.062c-4.337,0 -6.703,2.566 -6.703,7.062l0,14.618Z" style="fill:#1373ba;fill-rule:nonzero;"/><path d="M122.77,361.435l6.984,0c4.416,0 6.582,-2.446 6.582,-6.942l0,-14.216c0,-4.496 -2.166,-6.942 -6.582,-6.942l-6.984,0l0,28.1Zm6.903,-24.09c1.407,0 2.251,0.723 2.251,2.731l0,14.618c0,2.008 -0.844,2.731 -2.251,2.731l-2.491,0l0,-20.08l2.491,0Z" style="fill:#1373ba;fill-rule:nonzero;"/><path d="M140.155,333.335l0,21.4c0,4.495 2.246,7.061 6.582,7.061c4.336,0 6.582,-2.566 6.582,-7.061l0,-21.4l-4.171,0l0,21.681c0,2.007 -0.884,2.73 -2.291,2.73c-1.406,0 -2.291,-0.723 -2.291,-2.73l0,-21.681l-4.411,0Z" style="fill:#1373ba;fill-rule:nonzero;"/><path d="M166.172,350.959l0,4.016c0,2.008 -0.884,2.731 -2.291,2.731c-1.407,0 -2.291,-0.723 -2.291,-2.731l0,-15.18c0,-2.008 0.884,-2.771 2.291,-2.771c1.407,0 2.291,0.763 2.291,2.771l0,3.012l4.17,0l0,-2.731c0,-4.496 -2.245,-7.062 -6.582,-7.062c-4.336,0 -6.582,2.566 -6.582,7.062l0,14.618c0,4.495 2.246,7.062 6.582,7.062c4.337,0 6.582,-2.567 6.582,-7.062l0,-3.735l-4.17,0Z" style="fill:#1373ba;fill-rule:nonzero;"/><path d="M172.957,337.345l4.617,0l0,24.09l4.412,0l0,-24.09l4.617,0l0,-4.01l-13.646,0l0,4.01Z" style="fill:#1373ba;fill-rule:nonzero;"/><path d="M193.79,339.795c0,-2.008 0.884,-2.771 2.291,-2.771c1.406,0 2.291,0.763 2.291,2.771l0,15.18c0,2.008 -0.885,2.771 -2.291,2.771c-1.407,0 -2.291,-0.763 -2.291,-2.771l0,-15.18Zm-4.412,14.899c0,4.495 2.366,7.062 6.703,7.062c4.336,0 6.702,-2.567 6.702,-7.062l0,-14.618c0,-4.496 -2.366,-7.062 -6.702,-7.062c-4.337,0 -6.703,2.566 -6.703,7.062l0,14.618Z" style="fill:#1373ba;fill-rule:nonzero;"/><path d="M223.705,361.435l4.533,0l0,-28.1l-3.93,0l0,16.82l-4.54,-16.82l-5.537,0l0,28.1l3.969,0l0,-20.352l5.505,20.352Z" style="fill:#1373ba;fill-rule:nonzero;"/><path d="M236.669,339.795c0,-2.008 0.884,-2.771 2.291,-2.771c1.407,0 2.291,0.763 2.291,2.771l0,15.18c0,2.008 -0.884,2.771 -2.291,2.771c-1.407,0 -2.291,-0.763 -2.291,-2.771l0,-15.18Zm-4.411,14.899c0,4.495 2.366,7.062 6.702,7.062c4.337,0 6.703,-2.567 6.703,-7.062l0,-14.618c0,-4.496 -2.366,-7.062 -6.703,-7.062c-4.336,0 -6.702,2.566 -6.702,7.062l0,14.618Z" style="fill:#1373ba;fill-rule:nonzero;"/><path d="M261.562,337.345l7.628,0l0,-4.01l-12.04,0l0,28.1l12.04,0l0,-4.01l-7.628,0l0,-8.236l6.062,0l0,-4.01l-6.062,0l0,-7.834Z" style="fill:#1373ba;fill-rule:nonzero;"/><path d="M282.565,361.435l4.532,0l0,-28.1l-3.93,0l0,16.82l-4.54,-16.82l-5.537,0l0,28.1l3.97,0l0,-20.352l5.505,20.352Z" style="fill:#1373ba;fill-rule:nonzero;"/><path d="M300.11,350.959l0,4.016c0,2.008 -0.884,2.731 -2.291,2.731c-1.406,0 -2.291,-0.723 -2.291,-2.731l0,-15.18c0,-2.008 0.885,-2.771 2.291,-2.771c1.407,0 2.291,0.763 2.291,2.771l0,3.012l4.171,0l0,-2.731c0,-4.496 -2.246,-7.062 -6.582,-7.062c-4.336,0 -6.582,2.566 -6.582,7.062l0,14.618c0,4.495 2.246,7.062 6.582,7.062c4.336,0 6.582,-2.567 6.582,-7.062l0,-3.735l-4.171,0Z" style="fill:#1373ba;fill-rule:nonzero;"/><path d="M312.231,339.795c0,-2.008 0.884,-2.771 2.291,-2.771c1.406,0 2.291,0.763 2.291,2.771l0,15.18c0,2.008 -0.885,2.771 -2.291,2.771c-1.407,0 -2.291,-0.763 -2.291,-2.771l0,-15.18Zm-4.412,14.899c0,4.495 2.366,7.062 6.703,7.062c4.336,0 6.702,-2.567 6.702,-7.062l0,-14.618c0,-4.496 -2.366,-7.062 -6.702,-7.062c-4.337,0 -6.703,2.566 -6.703,7.062l0,14.618Z" style="fill:#1373ba;fill-rule:nonzero;"/><path d="M334.719,361.435l4.532,0l0,-28.1l-3.93,0l0,16.82l-4.54,-16.82l-5.537,0l0,28.1l3.97,0l0,-20.352l5.505,20.352Z" style="fill:#1373ba;fill-rule:nonzero;"/><path d="M342.348,337.345l4.617,0l0,24.09l4.411,0l0,-24.09l4.617,0l0,-4.01l-13.645,0l0,4.01Z" style="fill:#1373ba;fill-rule:nonzero;"/><path d="M372.856,361.435c-0.441,-1.044 -0.482,-2.048 -0.482,-3.413l0,-4.336c0,-2.931 -0.721,-5.057 -2.927,-5.98c1.965,-0.922 2.887,-2.809 2.887,-5.701l0,-2.21c0,-4.335 -1.965,-6.46 -6.542,-6.46l-6.662,0l0,28.1l4.412,0l0,-11.443l1.527,0c2.01,0 2.894,0.964 2.894,3.573l0,4.417c0,2.288 0.16,2.73 0.401,3.453l4.492,0Zm-7.184,-24.09c1.567,0 2.251,0.884 2.251,2.892l0,2.772c0,2.25 -1.005,2.973 -2.653,2.973l-1.728,0l0,-8.637l2.13,0Z" style="fill:#1373ba;fill-rule:nonzero;"/><path d="M386.268,333.335l-6.462,0l-4.496,28.1l4.054,0l0.763,-5.099l5.418,0l0.763,5.099l4.455,0l-4.495,-28.1Zm-3.452,4.978l2.127,14.213l-4.254,0l2.127,-14.213Z" style="fill:#1373ba;fill-rule:nonzero;"/><path d="M394.02,361.435l6.984,0c4.416,0 6.582,-2.446 6.582,-6.942l0,-14.216c0,-4.496 -2.166,-6.942 -6.582,-6.942l-6.984,0l0,28.1Zm6.903,-24.09c1.407,0 2.251,0.723 2.251,2.731l0,14.618c0,2.008 -0.844,2.731 -2.251,2.731l-2.492,0l0,-20.08l2.492,0Z" style="fill:#1373ba;fill-rule:nonzero;"/><path d="M415.656,339.795c0,-2.008 0.884,-2.771 2.291,-2.771c1.406,0 2.291,0.763 2.291,2.771l0,15.18c0,2.008 -0.885,2.771 -2.291,2.771c-1.407,0 -2.291,-0.763 -2.291,-2.771l0,-15.18Zm-4.412,14.899c0,4.495 2.366,7.062 6.703,7.062c4.336,0 6.702,-2.567 6.702,-7.062l0,-14.618c0,-4.496 -2.366,-7.062 -6.702,-7.062c-4.337,0 -6.703,2.566 -6.703,7.062l0,14.618Z" style="fill:#1373ba;fill-rule:nonzero;"/><path d="M432.559,355.216l0.562,-10.157l0,-11.724l-4.412,0l0,11.724l0.562,10.157l3.288,0Zm-3.77,1.968l0,4.251l4.251,0l0,-4.251l-4.251,0Z" style="fill:#1373ba;fill-rule:nonzero;"/></g><g><path d="M167.131,386.668l-2.956,0l2.876,18.645l4.368,0l2.876,-18.645l-2.69,0l-2.237,15.209l-2.237,-15.209Z" style="fill:#1b3346;fill-rule:nonzero;"/><path d="M176.323,386.668l0,14.199c0,2.983 1.49,4.685 4.367,4.685c2.878,0 4.368,-1.702 4.368,-4.685l0,-14.199l-2.767,0l0,14.386c0,1.332 -0.587,1.811 -1.521,1.811c-0.933,0 -1.52,-0.479 -1.52,-1.811l0,-14.386l-2.927,0Z" style="fill:#1b3346;fill-rule:nonzero;"/><path d="M190.786,389.328l5.061,0l0,-2.66l-7.988,0l0,18.645l7.988,0l0,-2.661l-5.061,0l0,-5.465l4.022,0l0,-2.66l-4.022,0l0,-5.199Z" style="fill:#1b3346;fill-rule:nonzero;"/><path d="M198.461,405.313l7.749,0l0,-2.661l-4.821,0l0,-15.984l-2.928,0l0,18.645Z" style="fill:#1b3346;fill-rule:nonzero;"/><path d="M209.596,386.668l-2.956,0l2.876,18.645l4.368,0l2.876,-18.645l-2.69,0l-2.237,15.209l-2.237,-15.209Z" style="fill:#1b3346;fill-rule:nonzero;"/><path d="M221.848,389.328l5.062,0l0,-2.66l-7.989,0l0,18.645l7.989,0l0,-2.661l-5.062,0l0,-5.465l4.023,0l0,-2.66l-4.023,0l0,-5.199Z" style="fill:#1b3346;fill-rule:nonzero;"/><path d="M240.951,386.668l-4.288,0l-2.983,18.645l2.69,0l0.506,-3.384l3.595,0l0.506,3.384l2.956,0l-2.982,-18.645Zm-2.291,3.303l1.412,9.431l-2.823,0l1.411,-9.431Z" style="fill:#1b3346;fill-rule:nonzero;"/><rect x="251.023" y="386.668" width="2.927" height="18.645" style="fill:#1b3346;fill-rule:nonzero;"/><path d="M263.144,405.313l3.007,0l0,-18.645l-2.607,0l0,11.16l-3.013,-11.16l-3.674,0l0,18.645l2.634,0l0,-13.505l3.653,13.505Z" style="fill:#1b3346;fill-rule:nonzero;"/><path d="M268.206,389.328l3.064,0l0,15.985l2.927,0l0,-15.985l3.064,0l0,-2.66l-9.055,0l0,2.66Z" style="fill:#1b3346;fill-rule:nonzero;"/><path d="M282.269,389.328l5.062,0l0,-2.66l-7.989,0l0,18.645l7.989,0l0,-2.661l-5.062,0l0,-5.465l4.023,0l0,-2.66l-4.023,0l0,-5.199Z" style="fill:#1b3346;fill-rule:nonzero;"/><path d="M296.205,405.313l3.007,0l0,-18.645l-2.607,0l0,11.16l-3.013,-11.16l-3.674,0l0,18.645l2.634,0l0,-13.505l3.653,13.505Z" style="fill:#1b3346;fill-rule:nonzero;"/><path d="M301.267,389.328l3.064,0l0,15.985l2.927,0l0,-15.985l3.063,0l0,-2.66l-9.054,0l0,2.66Z" style="fill:#1b3346;fill-rule:nonzero;"/><path d="M317.888,386.668l-4.287,0l-2.983,18.645l2.69,0l0.506,-3.384l3.595,0l0.506,3.384l2.956,0l-2.983,-18.645Zm-2.29,3.303l1.411,9.431l-2.823,0l1.412,-9.431Z" style="fill:#1b3346;fill-rule:nonzero;"/><path d="M332.14,405.313c-0.293,-0.693 -0.32,-1.359 -0.32,-2.265l0,-2.877c0,-1.945 -0.479,-3.356 -1.942,-3.967c1.304,-0.612 1.916,-1.864 1.916,-3.784l0,-1.466c0,-2.876 -1.304,-4.286 -4.341,-4.286l-4.421,0l0,18.645l2.927,0l0,-7.593l1.014,0c1.333,0 1.92,0.639 1.92,2.371l0,2.931c0,1.518 0.107,1.811 0.266,2.291l2.981,0Zm-4.767,-15.985c1.04,0 1.493,0.587 1.493,1.92l0,1.839c0,1.493 -0.666,1.972 -1.76,1.972l-1.147,0l0,-5.731l1.414,0Z" style="fill:#1b3346;fill-rule:nonzero;"/></g></svg>