<?xml version="1.0" encoding="UTF-8" standalone="no"?><!DOCTYPE svg PUBLIC "-//W3C//DTD SVG 1.1//EN" "http://www.w3.org/Graphics/SVG/1.1/DTD/svg11.dtd"><svg width="100%" height="100%" viewBox="0 0 34 74" version="1.1" xmlns="http://www.w3.org/2000/svg" xmlns:xlink="http://www.w3.org/1999/xlink" xml:space="preserve" xmlns:serif="http://www.serif.com/" style="fill-rule:evenodd;clip-rule:evenodd;stroke-linejoin:round;stroke-miterlimit:1.41421;"><rect id="Artboard1" x="0" y="0" width="33.357" height="73.41" style="fill:none;"/><clipPath id="_clip1"><rect x="0" y="0" width="33.357" height="73.41"/></clipPath><g clip-path="url(#_clip1)"><path d="M55.87,86.022c2.708,-2.159 1.908,0.436 5.062,-0.99l0,-609.033l-8.837,-6.074l0,530.02c0,9.989 -8.103,18.092 -18.099,18.092l-12.418,0c-10.421,0 -18.867,8.446 -18.867,18.867c0,10.42 8.446,18.867 18.867,18.867l12.418,0c4.546,0 10.95,3.141 15.537,8.081c2.465,2.654 2.814,4.934 3.859,11.044c0.189,1.107 1.195,1.979 1.408,3.13c0.55,2.973 1.055,6.003 1.07,7.996Z" style="fill:#ee665f;fill-rule:nonzero;"/></g></svg>